<?xml version="1.0" standalone="no"?><!DOCTYPE svg PUBLIC "-//W3C//DTD SVG 1.1//EN" "http://www.w3.org/Graphics/SVG/1.1/DTD/svg11.dtd"><svg t="1601775488841" class="icon" viewBox="0 0 1024 1024" version="1.1" xmlns="http://www.w3.org/2000/svg" p-id="1708" xmlns:xlink="http://www.w3.org/1999/xlink" width="200" height="200"><defs><style type="text/css"></style></defs><path d="M512.081013 512.648101m-362.936709 0a362.936709 362.936709 0 1 0 725.873418 0 362.936709 362.936709 0 1 0-725.873418 0Z" fill="#8723E8" p-id="1709"></path><path d="M530.389873 334.825316H491.746835c-59.220253 0-107.665823 48.44557-107.665822 107.665823v16.121519h17.579746v-11.827848c0-52.901266 43.260759-96.162025 96.162026-96.162025h29.164557c52.901266 0 96.162025 43.260759 96.162025 96.162025v11.827848h14.825317v-16.121519c0.081013-59.220253-48.364557-107.665823-107.584811-107.665823z" fill="#C030F9" p-id="1710"></path><path d="M424.791494 420.540759l38.794531-49.468759 11.985013 9.399089-38.794532 49.468759zM437.938228 442.445772l29.69519-37.866126 11.985012 9.398278-29.696 37.866937z" fill="#FFFFFF" p-id="1711"></path><path d="M527.068354 350.622785h-29.164557c-52.901266 0-96.162025 43.260759-96.162025 96.162025v11.827848h221.488608v-11.827848c0-52.901266-43.341772-96.162025-96.162026-96.162025z m-102.318987 69.913924l38.805063-49.498734 11.989874 9.397468-38.805063 49.498734-11.989874-9.397468z m25.194937 31.351899l-11.989874-9.397469 29.731646-37.913924L479.594937 413.974684l-29.650633 37.913924z" fill="#DFD3FF" p-id="1712"></path><path d="M368.283544 411.139241l-16.607595-6.156963c-12.475949-4.617722-26.410127 1.863291-31.027848 14.339241-4.617722 12.475949 1.863291 26.410127 14.339241 31.027848l16.607595 6.156962c12.475949 4.617722 26.410127-1.863291 31.027848-14.33924 4.617722-12.475949-1.863291-26.410127-14.339241-31.027848zM701.488608 419.321519c-4.617722-12.475949-18.551899-18.875949-31.027849-14.339241l-16.607594 6.156963c-12.475949 4.617722-18.875949 18.551899-14.339241 31.027848 4.617722 12.475949 18.551899 18.875949 31.027848 14.33924l16.607595-6.156962c12.475949-4.536709 18.956962-18.551899 14.339241-31.027848z" fill="#916BFF" p-id="1713"></path><path d="M388.050633 638.622785v20.41519c0 13.367089 10.855696 24.303797 24.303797 24.303797 13.367089 0 24.303797-10.855696 24.303798-24.303797V639.189873h-38.967089c-3.321519 0-6.481013-0.162025-9.640506-0.567088zM598.926582 639.189873v19.929114c0 13.367089 10.855696 24.303797 24.303798 24.303798 13.367089 0 24.303797-10.855696 24.303797-24.303798v-21.792405c-5.751899 1.21519-11.746835 1.863291-17.903797 1.863291h-30.703798z" fill="#6C1D4D" p-id="1714"></path><path d="M704.972152 501.306329c-15.473418-25.6-43.503797-42.693671-75.341772-42.693671H397.610127c-31.270886 0-58.896203 16.526582-74.531646 41.316456-8.587342 13.529114-13.529114 29.56962-13.529114 46.663291v4.536709c0 16.76962 4.779747 32.567089 13.043038 45.934177 13.934177 22.602532 37.832911 38.562025 65.377215 41.559494 3.159494 0.324051 6.318987 0.567089 9.559494 0.567088h232.020253c6.156962 0 12.070886-0.648101 17.903798-1.863291 24.546835-5.103797 45.529114-20.577215 57.92405-41.559493 7.777215-13.124051 12.232911-28.35443 12.232912-44.637975v-4.536709c0-16.44557-4.617722-32-12.637975-45.286076z" fill="#D65AFF" p-id="1715"></path><path d="M433.660759 548.698734c0 36.455696-29.56962 66.025316-66.025316 66.025317-17.336709 0-33.21519-6.724051-44.962025-17.741773-8.263291-13.367089-13.043038-29.083544-13.043038-45.934177v-4.536709c0-17.093671 4.941772-33.134177 13.529114-46.663291 11.746835-10.693671 27.382278-17.255696 44.475949-17.255696 36.455696 0.081013 66.025316 29.650633 66.025316 66.106329zM717.610127 546.673418v4.536709c0 16.283544-4.455696 31.513924-12.232912 44.637974-11.908861 11.746835-28.273418 18.956962-46.33924 18.956962-36.455696 0-66.025316-29.56962-66.025317-66.025316s29.56962-66.025316 66.025317-66.025317c17.822785 0 34.025316 7.048101 45.934177 18.632912 8.020253 13.205063 12.637975 28.759494 12.637975 45.286076z" fill="#8C18DF" p-id="1716"></path><path d="M659.037975 548.860759m-40.263291 0a40.263291 40.263291 0 1 0 80.526582 0 40.263291 40.263291 0 1 0-80.526582 0Z" fill="#FFFFFF" p-id="1717"></path><path d="M574.78481 619.827848H447.351899c-2.916456 0-5.265823-2.349367-5.265823-5.265823v-36.050633c0-2.916456 2.349367-5.265823 5.265823-5.265822h127.432911c2.916456 0 5.265823 2.349367 5.265823 5.265822v36.050633c0 2.835443-2.349367 5.265823-5.265823 5.265823z" fill="#FFFFFF" p-id="1718"></path><path d="M367.635443 548.698734m-40.263291 0a40.263291 40.263291 0 1 0 80.526582 0 40.263291 40.263291 0 1 0-80.526582 0Z" fill="#FFFFFF" p-id="1719"></path></svg>